<svg id="Capa_1" enable-background="new 0 0 512 512" height="512" viewBox="0 0 512 512" width="512" xmlns="http://www.w3.org/2000/svg"><g><path d="m26.908.007h9.746c34.137 0 61.811 27.674 61.811 61.811v56.341l-7.637 10.302h-24.038l-7.71-10.302v-47.863c0-17.069-13.837-30.905-30.905-30.905h-1.267c-3.983 0-7.211-3.229-7.211-7.211v-24.962c0-3.983 3.228-7.211 7.211-7.211z" fill="#64758a"/><path d="m79.685 70.291v47.862h-20.604v-47.862c0-17.069-13.837-30.905-30.905-30.905h-1.267c-3.983 0-7.211-3.229-7.211-7.211v-24.961c0-3.983 3.229-7.211 7.211-7.211h9.746c1.226 0 2.441.031 3.647.113v39.271h8.478c17.068-.001 30.905 13.836 30.905 30.904z" fill="#5b6b7c"/><path d="m98.464 236.31h-44.452c-8.534 0-15.453-6.918-15.453-15.453v-87.247c0-8.534 6.918-15.453 15.453-15.453h44.453l10.302 8.039v100.958z" fill="#92a0b5"/><path d="m74.616 236.305h-20.604c-8.54 0-15.453-6.913-15.453-15.453v-87.246c0-8.53 6.913-15.453 15.453-15.453h20.604c-8.54 0-15.453 6.923-15.453 15.453v87.246c0 8.541 6.913 15.453 15.453 15.453z" fill="#7d8ea5"/><path d="m485.092.007h-9.746c-34.137 0-61.811 27.674-61.811 61.811v56.341l7.637 10.302h23.351l8.396-10.302v-47.863c0-17.069 13.837-30.905 30.905-30.905h1.267c3.983 0 7.211-3.229 7.211-7.211v-24.962c.001-3.983-3.227-7.211-7.21-7.211z" fill="#64758a"/><path d="m492.303.002s-58.164 11.501-58.164 61.811v56.341h-20.604v-56.341c0-34.13 27.671-61.811 61.811-61.811h16.957z" fill="#5b6b7c"/><path d="m458.403 236.31h-44.868l-10.302-7.782v-102.331l10.302-8.039h44.868c8.534 0 15.453 6.918 15.453 15.453v87.247c0 8.534-6.918 15.452-15.453 15.452z" fill="#92a0b5"/><path d="m413.535 118.154h20.604v118.151h-20.604z" fill="#7d8ea5"/><path d="m437.92 511.998h-48.768c-8.284 0-15-6.716-15-15v-44.076h78.768v44.076c0 8.284-6.716 15-15 15z" fill="#64758a"/><path d="m122.848 511.998h-48.768c-8.284 0-15-6.716-15-15v-44.076h78.768v44.076c0 8.284-6.716 15-15 15z" fill="#64758a"/><path d="m413.535 89.986v208.138l-18.78 10.302h-277.51l-18.78-10.302v-208.138c0-17.07 13.835-30.905 30.905-30.905h253.26c17.07 0 30.905 13.835 30.905 30.905z" fill="#5f99d7"/><path d="m394.755 247.522c0-28.402-23.107-51.509-51.509-51.509h-174.492c-15.785 0-29.927 7.144-39.384 18.361v-124.385c0-17.07 13.835-30.906 30.906-30.906h-30.906c-17.07 0-30.905 13.835-30.905 30.906v208.138l18.78 10.302 256.907-.002 20.603-10.302z" fill="#3c87d0"/><path d="m374.15 246.62v177.22h-236.3v-177.22c0-16.57 13.43-30 30-30h176.3c16.57 0 30 13.43 30 30z" fill="#8ac9fe"/><path d="m374.15 392.93v30.91h-236.3v-177.22c0-16.57 13.43-30 30-30h2.67c-1.15 3.21-1.77 6.68-1.77 10.3v158.8c0 3.99 3.23 7.21 7.22 7.21z" fill="#60b7ff"/><path d="m332.94 267.83v94.5c0 5.52-4.47 10-10 10h-133.88c-5.53 0-10-4.48-10-10v-94.5c0-5.53 4.47-10 10-10h133.88c5.53 0 10 4.47 10 10z" fill="#92a0b5"/><path d="m220.26 372.33h-31.2c-5.53 0-10-4.48-10-10v-94.5c0-5.53 4.47-10 10-10h31.2c-5.68 0-10.3 4.61-10.3 10.3v93.9c0 5.69 4.62 10.3 10.3 10.3z" fill="#7d8ea5"/><path d="m137.85 298.12v125.72h-98.46v-95.72c0-16.57 13.43-30 30-30z" fill="#8ac9fe"/><path d="m137.85 392.93v30.91h-98.46v-95.72c0-16.57 13.43-30 30-30h2.66v.01c-1.14 3.21-1.76 6.68-1.76 10.3v77.29c0 3.99 3.23 7.21 7.21 7.21z" fill="#60b7ff"/><path d="m137.85 341.77v25.38c0 3.87-3.14 7-7 7h-45.08c-3.86 0-7-3.13-7-7v-25.38c0-3.87 3.14-7 7-7h45.08c3.86 0 7 3.13 7 7z" fill="#fee97d"/><path d="m109.67 334.77v39.38h-23.9c-3.86 0-7-3.13-7-7v-25.38c0-3.87 3.14-7 7-7z" fill="#fee45a"/><path d="m472.612 423.84h-98.46v-125.719h68.46c16.569 0 30 13.432 30 30z" fill="#8ac9fe"/><path d="m472.616 392.891v30.905h-98.465v-125.713h30.905v87.596c0 3.987 3.225 7.211 7.211 7.211h60.349z" fill="#60b7ff"/><path d="m433.23 341.77v25.38c0 3.87-3.14 7-7 7h-45.08c-3.86 0-7-3.13-7-7v-25.38c0-3.87 3.14-7 7-7h45.08c3.86 0 7 3.13 7 7z" fill="#fee97d"/><path d="m405.06 334.77v39.38h-23.91c-3.86 0-7-3.13-7-7v-25.38c0-3.87 3.14-7 7-7z" fill="#fee45a"/><g><path d="m295.384 303.113h-78.769c-4.268 0-7.726-3.459-7.726-7.726s3.459-7.726 7.726-7.726h78.769c4.268 0 7.726 3.459 7.726 7.726.001 4.266-3.458 7.726-7.726 7.726z" fill="#eaf6ff"/></g><g><path d="m295.384 342.496h-78.769c-4.268 0-7.726-3.459-7.726-7.726s3.459-7.726 7.726-7.726h78.769c4.268 0 7.726 3.459 7.726 7.726.001 4.267-3.458 7.726-7.726 7.726z" fill="#eaf6ff"/></g><path d="m370.96 115.29v56.31c0 3.87-3.13 7-7 7h-215.92c-3.87 0-7-3.13-7-7v-56.31c0-8.28 6.71-15 15-15h199.92c8.29 0 15 6.72 15 15z" fill="#eaf6ff"/><path d="m187.4 100.29c-8.54 0-15.45 6.92-15.45 15.45v62.86h-23.91c-3.87 0-7-3.13-7-7v-56.31c0-8.28 6.71-15 15-15z" fill="#d8ecfe"/><path d="m354.46 472.614h-196.92l-151.219-18.903c-3.609-.451-6.317-3.519-6.317-7.156v-25.807c0-3.983 3.229-7.211 7.211-7.211h497.568c3.983 0 7.211 3.228 7.211 7.211v25.807c0 3.637-2.708 6.704-6.317 7.156z" fill="#eaf6ff"/><path d="m512 436.181v10.375c0 3.637-2.708 6.704-6.317 7.156l-151.219 18.907h-196.93l-151.217-18.908c-3.609-.451-6.317-3.519-6.317-7.155v-25.807c0-3.983 3.229-7.211 7.211-7.211h23.694v18.78l157.535 19.697h196.93z" fill="#d8ecfe"/></g></svg>